<?xml version="1.0" encoding="UTF-8"?><svg id="a" xmlns="http://www.w3.org/2000/svg" viewBox="0 0 3412.58 2366.63"><path d="M2230.39,1183.27v693.98c0,3-.21,6.02.04,9,.7,8.46-2.82,13.17-10.94,16.57-74.97,31.37-149.77,63.16-224.62,94.79-288.39,121.88-576.8,243.7-865.09,365.81-10.39,4.4-18.93,4.21-29.28-.17-361.61-153.11-723.34-305.93-1085.06-458.8Q.05,1897.94.04,1880.92V484.96c0-2,.09-4-.01-6-.35-7.24,2.82-11.6,9.68-14.44,31.39-12.99,62.63-26.35,93.92-39.58C436.2,284.4,768.79,143.9,1101.26,3.12c10.08-4.27,18.36-4.1,28.34.13,362.24,153.33,724.59,306.4,1086.93,459.51,2.15.91,4.23,1.99,6.42,2.77,5.11,1.82,7.17,5.68,7.36,10.77.13,3.33.07,6.66.07,10,0,232.32,0,464.65,0,696.97ZM1123.72,2350.31c365.16-154.32,729.42-308.27,1093.06-461.95V484.53c-365.02,154.26-729.04,308.1-1093.06,461.94v1403.85ZM1106.95,2350.32V946.48C743.17,792.74,379.13,638.89,14.09,484.62v1403.84c363.81,153.75,727.85,307.6,1092.87,461.86ZM2206.56,471.82c-5.25-2.35-8.26-3.76-11.31-5.05C1838.44,315.98,1481.63,165.21,1124.87,14.29c-6.58-2.78-11.99-3.03-18.77-.16C749.36,165.09,392.54,315.85,35.74,466.64c-3.28,1.39-6.47,2.96-11.25,5.16,4.27,2.01,7.12,3.48,10.07,4.73,357.1,150.96,714.21,301.88,1071.26,452.97,6.68,2.83,12.17,2.93,18.88.08,86.12-36.64,172.36-73,258.57-109.44,270.59-114.37,541.18-228.75,811.76-343.14,3.28-1.39,6.5-2.91,11.54-5.18Z" fill="#fff" fill-rule="evenodd"/><path d="M660.46,1787.84c0,4.98.04,10.05-.8,14.94-2.6,15.15-13.92,22.07-28.56,17.74-2.86-.85-5.62-2.05-8.38-3.22-43.55-18.38-86.92-37.23-130.73-55-21.41-8.68-30.63-24.39-31.52-46.25-.38-9.31-.09-18.66-.09-27.98,0-36.98,0-73.97,0-110.95,0-45.65-.11-91.29.12-136.94.03-6.73-1.89-11.99-5.9-17.33-37.28-49.7-60.76-105.43-70.46-166.69-6.2-39.16-6.06-78.39,5.57-116.8,10.12-33.43,27.46-62.08,57.3-81.67,20.21-13.26,42.67-17.88,66.69-16.13,45.52,3.32,82.44,24.8,114.69,55.16,51.42,48.39,83.34,108.28,100.94,176.17,8.16,31.47,11.8,63.53,9.86,96.03-2.01,33.66-9.37,65.89-27.88,94.75-11.69,18.22-26.06,33.73-45.51,43.83-3.75,1.95-5.32,4.18-5.33,8.47v271.88ZM476.05,1575.33c0,46.33,0,92.65,0,138.98,0,16.29,6.6,27.55,22.43,34.04,43.45,17.8,86.68,36.15,129.77,54.79,11.69,5.06,16.81,6.11,16.76-11.48-.08-26.66-.02-53.32-.02-79.99,0-66.32.06-132.65-.08-198.97-.01-7.59,1.35-13.36,9.19-16.93,29.48-13.39,46.85-37.44,57.55-67.06,13.95-38.61,15.2-78.45,9.14-118.37-10.87-71.64-40.14-135.03-89.4-188.57-24.69-26.84-53.4-48.16-88.55-59.66-34.27-11.21-66.49-7.45-95.73,14.23-21.79,16.15-33.84,38.98-41.65,64.32-11.86,38.44-11.91,77.59-5.28,116.77,9.9,58.5,32.8,111.6,68.98,158.76,4.95,6.45,7.04,13.07,6.99,21.17-.25,45.99-.12,91.99-.12,137.98Z" fill="#fff" fill-rule="evenodd"/><path d="M2488.87,475.36v387.26h213.96v70.07h-297.7v-457.32h83.74Z" fill="#fff"/><path d="M2941.75,875.95c15.72,0,32.13-1.59,49.22-4.79,17.09-3.19,34.4-7.74,51.95-13.67v64.6c-10.48,4.56-26.55,8.89-48.19,12.99-21.65,4.1-44.09,6.15-67.33,6.15s-45.75-3.02-66.82-9.06c-21.08-6.03-39.48-15.78-55.2-29.22-15.72-13.44-28.2-30.87-37.43-52.29-9.23-21.42-13.84-47.39-13.84-77.93s4.33-56.4,12.99-78.96c8.66-22.56,20.28-41.24,34.86-56.05,14.58-14.81,31.27-25.92,50.07-33.33,18.8-7.4,38.22-11.11,58.28-11.11s40.27,3.19,57.93,9.57c17.66,6.38,32.93,16.41,45.8,30.08,12.87,13.67,22.9,31.27,30.08,52.81,7.18,21.53,10.77,47,10.77,76.39-.23,11.4-.57,21.08-1.03,29.05h-217.04c1.14,15.27,4.55,28.32,10.25,39.14,5.69,10.83,13.16,19.6,22.39,26.32,9.23,6.72,20,11.62,32.3,14.7s25.63,4.61,39.99,4.61ZM2909.28,656.51c-10.25,0-19.37,1.88-27.34,5.64-7.98,3.76-14.87,8.89-20.68,15.38-5.81,6.49-10.42,14.07-13.84,22.73-3.42,8.66-5.7,17.89-6.84,27.69h130.22c0-9.79-1.31-19.02-3.93-27.69-2.62-8.66-6.49-16.24-11.62-22.73-5.13-6.49-11.51-11.62-19.14-15.38-7.64-3.76-16.58-5.64-26.83-5.64Z" fill="#fff"/><path d="M3332.43,932.34c-9.12,2.73-20,4.9-32.64,6.49-12.65,1.59-24.44,2.39-35.38,2.39-27.8,0-50.53-4.5-68.19-13.5-17.66-9-30.14-21.93-37.43-38.79-5.24-12.08-7.86-28.48-7.86-49.22v-171.58h-61.87v-66.65h61.87v-92.63h81.01v92.63h95.7v66.65h-95.7v160.99c0,12.76,1.93,22.22,5.81,28.37,6.84,10.48,20.39,15.72,40.67,15.72,9.34,0,18.63-.74,27.86-2.22,9.23-1.48,17.95-3.36,26.15-5.64v66.99Z" fill="#fff"/><path d="M2672.07,1289.98c10.02-36,22.44-74.62,37.26-115.87l78.96-218.75h117.58v457.32h-83.74v-231.74c0-33.95,1.37-73.37,4.1-118.26h-3.08c-3.88,12.99-8.43,27.57-13.67,43.75-5.25,16.18-10.71,32.13-16.41,47.85l-94.68,258.4h-54l-94.68-258.4c-5.7-15.72-11.17-31.67-16.41-47.85-5.25-16.18-9.8-30.76-13.67-43.75h-3.08c2.73,42.16,4.1,81.47,4.1,117.92v232.08h-83.74v-457.32h116.89l78.96,217.72c13.21,36.23,25.63,75.2,37.26,116.89h2.05Z" fill="#fff"/><path d="M3175.54,1355.95c15.72,0,32.13-1.59,49.22-4.79,17.09-3.19,34.4-7.74,51.95-13.67v64.6c-10.48,4.56-26.55,8.89-48.19,12.99-21.65,4.1-44.09,6.15-67.33,6.15s-45.75-3.02-66.82-9.06c-21.08-6.03-39.48-15.78-55.2-29.22-15.72-13.44-28.2-30.87-37.43-52.29-9.23-21.42-13.84-47.39-13.84-77.93s4.33-56.4,12.99-78.96c8.66-22.56,20.28-41.24,34.86-56.05,14.58-14.81,31.27-25.92,50.07-33.33,18.8-7.4,38.22-11.11,58.28-11.11s40.27,3.19,57.93,9.57c17.66,6.38,32.93,16.41,45.8,30.08,12.87,13.67,22.9,31.27,30.08,52.81,7.18,21.53,10.77,47,10.77,76.39-.23,11.4-.57,21.08-1.03,29.05h-217.04c1.14,15.27,4.55,28.32,10.25,39.14,5.69,10.83,13.16,19.6,22.39,26.32,9.23,6.72,20,11.62,32.3,14.7s25.63,4.61,39.99,4.61ZM3143.07,1136.51c-10.25,0-19.37,1.88-27.34,5.64-7.98,3.76-14.87,8.89-20.68,15.38-5.81,6.49-10.42,14.07-13.84,22.73-3.42,8.66-5.7,17.89-6.84,27.69h130.22c0-9.79-1.31-19.02-3.93-27.69-2.62-8.66-6.49-16.24-11.62-22.73-5.13-6.49-11.51-11.62-19.14-15.38-7.64-3.76-16.58-5.64-26.83-5.64Z" fill="#fff"/><path d="M2750.17,1664.02c0,34.86-4.95,66.82-14.87,95.87-9.91,29.05-24.39,54.06-43.41,75.02-19.03,20.97-42.38,37.26-70.07,48.88-27.69,11.62-59.19,17.43-94.51,17.43s-66.82-5.81-94.51-17.43c-27.69-11.62-51.05-27.91-70.07-48.88-19.03-20.96-33.5-45.97-43.41-75.02-9.91-29.05-14.87-61.01-14.87-95.87s4.96-66.82,14.87-95.87c9.91-29.05,24.38-54.06,43.41-75.02,19.02-20.96,42.38-37.26,70.07-48.88,27.69-11.62,59.18-17.43,94.51-17.43s66.82,5.81,94.51,17.43c27.69,11.62,51.04,27.92,70.07,48.88,19.02,20.97,33.5,45.97,43.41,75.02,9.91,29.05,14.87,61.01,14.87,95.87ZM2663.7,1664.02c0-27.8-3.42-52.12-10.25-72.97-6.84-20.85-16.29-38.22-28.37-52.12-12.08-13.9-26.44-24.27-43.07-31.1-16.63-6.84-34.86-10.25-54.69-10.25s-38.06,3.42-54.69,10.25c-16.63,6.84-30.99,17.21-43.07,31.1-12.08,13.9-21.53,31.27-28.37,52.12-6.84,20.85-10.25,45.18-10.25,72.97s3.42,52.12,10.25,72.97c6.84,20.85,16.29,38.17,28.37,51.95,12.08,13.79,26.43,24.16,43.07,31.1,16.63,6.95,34.86,10.42,54.69,10.42s38.05-3.47,54.69-10.42c16.63-6.95,30.99-17.31,43.07-31.1,12.08-13.78,21.53-31.1,28.37-51.95,6.84-20.85,10.25-45.17,10.25-72.97Z" fill="#fff"/><path d="M2975.08,1901.23c-33.27,0-60.84-5.64-82.71-16.92s-38.4-26.49-49.56-45.63c-5.93-10.25-10.31-21.53-13.16-33.84-2.85-12.3-4.27-25.98-4.27-41.02v-202.34h81.01v193.8c0,11.17.8,20.8,2.39,28.88,1.59,8.09,3.98,15.1,7.18,21.02,5.47,10.03,13.21,17.49,23.24,22.39,10.03,4.9,21.99,7.35,35.89,7.35,14.58,0,27.06-2.73,37.43-8.2,10.37-5.47,18.17-13.78,23.41-24.95,5.24-10.71,7.86-25.63,7.86-44.78v-195.51h81.01v202.34c0,26.89-4.67,49.56-14.01,68.02-5.24,10.48-12.02,20-20.34,28.54-8.32,8.55-18.12,15.84-29.39,21.88-11.28,6.04-24.04,10.71-38.28,14.01-14.24,3.3-30.14,4.96-47.68,4.96Z" fill="#fff"/><path d="M3412.58,1892.34c-9.12,2.73-19.99,4.9-32.64,6.49-12.65,1.59-24.44,2.39-35.38,2.39-27.8,0-50.53-4.5-68.19-13.5-17.66-9-30.14-21.93-37.43-38.79-5.24-12.08-7.86-28.48-7.86-49.22v-171.58h-61.87v-66.65h61.87v-92.63h81.01v92.63h95.7v66.65h-95.7v160.99c0,12.76,1.93,22.22,5.81,28.37,6.84,10.48,20.39,15.72,40.67,15.72,9.34,0,18.63-.74,27.86-2.22,9.23-1.48,17.94-3.36,26.15-5.64v66.99Z" fill="#fff"/></svg>