<svg width="160" height="169" viewBox="0 0 160 169" fill="none" xmlns="http://www.w3.org/2000/svg">
<g clip-path="url(#clip0_229_4)">
<path fill-rule="evenodd" clip-rule="evenodd" d="M159.027 84.4967V134.053C159.027 134.268 159.012 134.483 159.029 134.696C159.079 135.3 158.828 135.637 158.25 135.879C152.905 138.12 147.573 140.39 142.238 142.648C121.68 151.352 101.121 160.051 80.5709 168.771C79.8303 169.085 79.2215 169.071 78.4837 168.759C52.7068 157.825 26.9213 146.912 1.13648 135.996C0.405104 135.686 0.03918 135.126 0.0387047 134.316V34.6306C0.0387047 34.4878 0.0451203 34.345 0.0379919 34.2022C0.0130426 33.6852 0.239012 33.3738 0.728019 33.171C2.96562 32.2434 5.19252 31.2894 7.423 30.3446C31.1299 20.3087 54.8381 10.2757 78.5379 0.222656C79.2564 -0.0822626 79.8466 -0.070123 80.5581 0.231939C106.38 11.1812 132.21 22.1118 158.039 33.0453C158.192 33.1103 158.34 33.1875 158.496 33.2432C158.86 33.3731 159.007 33.6488 159.021 34.0122C159.03 34.25 159.026 34.4878 159.026 34.7263C159.026 51.3162 159.026 67.9068 159.026 84.4967H159.027ZM80.1389 167.834C106.169 156.815 132.135 145.821 158.056 134.847V34.5999C132.036 45.6156 106.088 56.6012 80.1389 67.5869V167.835V167.834ZM78.9435 167.835V67.5876C53.0119 56.6091 27.0617 45.6227 1.04024 34.6064V134.854C26.974 145.833 52.9242 156.82 78.9442 167.835H78.9435ZM157.328 33.6923C156.954 33.5245 156.739 33.4238 156.522 33.3317C131.087 22.5639 105.652 11.7974 80.2209 1.0203C79.7518 0.821782 79.3662 0.80393 78.8829 1.00888C53.4531 11.7889 28.0176 22.5546 2.58354 33.3224C2.34973 33.4217 2.12233 33.5338 1.78159 33.6909C2.08598 33.8344 2.28913 33.9394 2.49942 34.0287C27.9549 44.8086 53.411 55.5858 78.8629 66.375C79.3391 66.5771 79.7305 66.5843 80.2088 66.3808C86.3477 63.7643 92.4953 61.1679 98.6406 58.5657C117.929 50.3986 137.218 42.2308 156.506 34.0622C156.74 33.963 156.969 33.8544 157.329 33.6923H157.328Z" fill="white"/>
<path fill-rule="evenodd" clip-rule="evenodd" d="M47.1166 127.669C47.1166 128.024 47.1194 128.387 47.0595 128.736C46.8742 129.818 46.0673 130.312 45.0237 130.003C44.8198 129.942 44.6231 129.856 44.4263 129.773C41.3219 128.46 38.2303 127.114 35.1074 125.845C33.5812 125.225 32.924 124.103 32.8605 122.542C32.8334 121.878 32.8541 121.21 32.8541 120.544C32.8541 117.904 32.8541 115.262 32.8541 112.621C32.8541 109.362 32.8463 106.102 32.8627 102.843C32.8648 102.362 32.7279 101.986 32.4421 101.605C29.7846 98.056 28.1109 94.0764 27.4194 89.7018C26.9775 86.9054 26.9874 84.104 27.8165 81.3612C28.5379 78.974 29.7739 76.9281 31.901 75.5292C33.3417 74.5823 34.9427 74.2524 36.655 74.3773C39.8998 74.6144 42.5316 76.1483 44.8305 78.3163C48.4959 81.7718 50.7713 86.0485 52.0259 90.8965C52.6076 93.1438 52.867 95.4332 52.7287 97.754C52.5855 100.158 52.0608 102.459 50.7413 104.52C49.908 105.821 48.8837 106.929 47.4972 107.65C47.2299 107.789 47.118 107.948 47.1173 108.255V127.67L47.1166 127.669ZM33.9711 112.494C33.9711 115.802 33.9711 119.11 33.9711 122.418C33.9711 123.581 34.4416 124.385 35.57 124.849C38.6673 126.12 41.7489 127.43 44.8205 128.761C45.6538 129.123 46.0188 129.198 46.0152 127.942C46.0095 126.038 46.0138 124.134 46.0138 122.23C46.0138 117.494 46.0181 112.757 46.0081 108.021C46.0074 107.479 46.1043 107.067 46.6632 106.812C48.7646 105.856 50.0028 104.139 50.7656 102.024C51.76 99.2664 51.8491 96.4215 51.4171 93.5708C50.6423 88.455 48.5558 83.9284 45.0443 80.1051C43.2843 78.1885 41.2378 76.666 38.7322 75.8448C36.2893 75.0443 33.9925 75.3128 31.9082 76.861C30.3549 78.0142 29.4959 79.6445 28.9392 81.454C28.0938 84.199 28.0902 86.9947 28.5628 89.7925C29.2685 93.97 30.9009 97.7618 33.48 101.13C33.8328 101.59 33.9818 102.063 33.9782 102.641C33.9604 105.925 33.9697 109.21 33.9697 112.494L33.9711 112.494Z" fill="white"/>
</g>
<defs>
<clipPath id="clip0_229_4">
<rect width="159" height="169" fill="white" transform="translate(0.0361328)"/>
</clipPath>
</defs>
</svg>
